<svg width="19" height="18" viewBox="0 0 19 18" fill="none" xmlns="http://www.w3.org/2000/svg">
<path fill-rule="evenodd" clip-rule="evenodd" d="M2.96927 8.31388C2.81053 9.92557 3.21553 11.5424 4.11527 12.889C5.01501 14.2355 6.35382 15.2285 7.90357 15.6986C9.45332 16.1687 11.1181 16.0869 12.6143 15.4672C14.1106 14.8474 15.3456 13.728 16.109 12.2998C16.8724 10.8715 17.117 9.22273 16.8011 7.63436C16.4851 6.046 15.6282 4.61632 14.3763 3.58892C13.1244 2.56153 11.555 2 9.93556 2C9.38328 2 8.93556 1.55228 8.93556 0.999998C8.93556 0.447714 9.38328 -2.27661e-06 9.93556 -2.30075e-06C12.0178 -2.39177e-06 14.0355 0.721971 15.6451 2.0429C17.2547 3.36384 18.3564 5.202 18.7626 7.24418C19.1688 9.28637 18.8544 11.4062 17.8729 13.2426L16.9909 12.7712L17.8729 13.2426C16.8913 15.0789 15.3034 16.5181 13.3797 17.3149C11.456 18.1117 9.31554 18.2169 7.323 17.6125C5.33046 17.008 3.60914 15.7314 2.45233 14.0001C1.29553 12.2688 0.774807 10.19 0.978898 8.11785C1.18299 6.04567 2.09926 4.10837 3.5716 2.63604C3.96212 2.24551 4.59529 2.24551 4.98581 2.63604C5.37634 3.02656 5.37634 3.65973 4.98581 4.05025C3.84066 5.1954 3.128 6.70219 2.96927 8.31388Z" fill="white"/>
</svg>
