<svg width="111" height="110" viewBox="0 0 111 110" fill="none" xmlns="http://www.w3.org/2000/svg">
<path d="M38.2511 88.3024H24.5664V91.7762H38.2511V88.3024Z" fill="#0082AA"/>
<path d="M38.2511 100.749H24.5664V104.222H38.2511V100.749Z" fill="#0082AA"/>
<path d="M38.2511 94.5287H24.5664V98.0026H38.2511V94.5287Z" fill="#0082AA"/>
<path d="M44.0652 99.8755C44.449 100.725 44.9935 101.492 45.6685 102.135C46.356 102.791 47.1613 103.31 48.0418 103.666C48.9621 104.039 49.9464 104.228 50.9391 104.223H53.9753V100.648H50.9391C50.4459 100.65 49.957 100.555 49.4999 100.369C49.0706 100.187 48.6756 99.9323 48.3322 99.6161C48.002 99.299 47.7362 98.9208 47.5495 98.5024C47.3594 98.0677 47.2626 97.5977 47.2654 97.123V91.8837H53.9753V88.3086H47.2654V82.5125H43.4782V88.3086H41.332V91.8837H43.4845V97.123C43.4794 98.0716 43.6775 99.0102 44.0652 99.8755Z" fill="black"/>
<path d="M14.1836 86.4671C14.818 86.2139 15.525 86.2139 16.1593 86.4671C16.7632 86.7206 17.2453 87.1993 17.5038 87.8023C17.6434 88.1124 17.7145 88.4491 17.7121 88.7894V104.223H21.4994V88.7894C21.4986 87.548 21.1313 86.3346 20.4439 85.3021C19.7565 84.2695 18.7796 83.464 17.6364 82.9869C16.1293 82.3612 14.4412 82.334 12.9149 82.911C12.198 83.1901 11.5388 83.5999 10.9708 84.1196L10.7561 84.3157L10.5415 84.1196C9.97377 83.5916 9.31215 83.1752 8.59108 82.892C7.06269 82.3147 5.37244 82.3418 3.86328 82.9679C2.34325 83.5976 1.13213 84.8026 0.4926 86.3216C0.160211 87.1013 -0.00742787 87.9415 0.000252454 88.7894V104.223H3.78754V88.7894C3.78402 88.4524 3.85067 88.1183 3.98322 87.8086C4.10803 87.5082 4.2903 87.2352 4.51975 87.005C4.75332 86.7768 5.02733 86.5944 5.3277 86.4671C5.95994 86.2143 6.66486 86.2143 7.29709 86.4671C7.59557 86.5945 7.86751 86.7769 8.09873 87.005C8.3297 87.2352 8.51403 87.5081 8.64158 87.8086C8.77123 88.1192 8.83776 88.4527 8.83725 88.7894V104.223H12.6245V88.7894C12.621 88.4524 12.6877 88.1183 12.8202 87.8086C12.945 87.5082 13.1273 87.2352 13.3568 87.005C13.5955 86.7742 13.8762 86.5916 14.1836 86.4671Z" fill="black"/>
<path d="M77.3557 86.3406V82.4998H62.8125V104.223H77.3557V100.388H66.6124V95.2879H77.3557V91.4534H66.6124V86.3406H77.3557Z" fill="black"/>
<path d="M86.0792 110H86.2117C87.154 110.007 88.0887 109.831 88.9638 109.481C89.8237 109.147 90.6046 108.636 91.2567 107.983C91.9088 107.329 92.4177 106.546 92.7511 105.684C93.1322 104.7 93.3208 103.652 93.3066 102.596V88.2832H89.7339V96.9584C89.7432 97.5084 89.6511 98.0554 89.4625 98.5719C89.2905 99.0201 89.0332 99.4306 88.705 99.7805C88.3898 100.109 88.0092 100.368 87.5878 100.54C86.716 100.874 85.7517 100.874 84.8799 100.54C84.4566 100.368 84.0738 100.109 83.7563 99.7805C83.428 99.4319 83.1726 99.021 83.0052 98.5719C82.8143 98.0558 82.7202 97.5088 82.7274 96.9584V88.2832H79.1611V96.9584C79.1435 98.0162 79.3322 99.0673 79.7165 100.053C80.0506 100.914 80.5598 101.697 81.2118 102.35C81.8638 103.004 82.6444 103.514 83.5038 103.849C85.2693 104.541 87.2299 104.541 88.9954 103.849L89.6834 103.577L89.4625 104.21C89.2975 104.648 89.0463 105.048 88.724 105.387C88.4105 105.718 88.0294 105.977 87.6067 106.146C87.1716 106.314 86.7094 106.4 86.2433 106.399H79.1484V109.974H86.0918L86.0792 110Z" fill="black"/>
<path d="M110.898 97.4458C110.965 97.0273 110.999 96.6041 110.999 96.1803C111.013 95.0704 110.798 93.9697 110.368 92.9468C109.972 92.0148 109.395 91.1714 108.67 90.4664C107.945 89.7686 107.086 89.2261 106.145 88.8718C105.15 88.4876 104.093 88.2944 103.027 88.3024C100.933 88.2928 98.9164 89.0981 97.4026 90.5487C96.6733 91.2579 96.0919 92.1053 95.692 93.0418C95.2667 94.0416 95.0518 95.1187 95.0608 96.2056C95.0539 97.3456 95.2683 98.476 95.692 99.5339C96.0935 100.468 96.6748 101.313 97.4026 102.021C98.1334 102.725 98.9899 103.285 99.9275 103.672C101.919 104.472 104.141 104.472 106.132 103.672C107.071 103.288 107.928 102.727 108.657 102.021C109.379 101.31 109.956 100.466 110.355 99.5339L110.469 99.2555H106.549C106.431 99.4143 106.303 99.5644 106.164 99.7048C105.757 100.1 105.277 100.412 104.75 100.622C103.651 101.071 102.421 101.071 101.322 100.622C100.797 100.4 100.321 100.075 99.9212 99.6668C99.5154 99.1732 99.1992 98.6121 98.987 98.009L98.8102 97.5724L99.2521 97.5154L110.898 97.4458ZM99.1637 93.9783C99.3568 93.5755 99.6125 93.206 99.9212 92.8836C100.323 92.4827 100.802 92.1684 101.329 91.9597C102.431 91.5424 103.648 91.5424 104.75 91.9597C105.278 92.1698 105.759 92.4839 106.164 92.8836C106.479 93.2026 106.741 93.57 106.94 93.9719L107.174 94.4338H98.9302L99.1637 93.9783Z" fill="black"/>
<path d="M60.2558 89.5426H56.4307V104.223H60.2558V89.5426Z" fill="black"/>
<path d="M60.244 86.7711C60.4827 86.5468 60.6756 86.2782 60.8121 85.9801C60.9447 85.6814 61.0132 85.358 61.0132 85.031C61.0132 84.704 60.9447 84.3806 60.8121 84.0818C60.6775 83.7809 60.4844 83.5098 60.244 83.2845C59.9948 83.0551 59.706 82.8728 59.3919 82.7467C58.7258 82.4768 57.9812 82.4768 57.3152 82.7467C57.0025 82.872 56.7157 83.0543 56.4694 83.2845C56.2329 83.5118 56.0421 83.7825 55.9076 84.0818C55.7724 84.3845 55.7014 84.712 55.6993 85.0436C55.697 85.3778 55.7682 85.7083 55.9076 86.0118C56.0422 86.3093 56.2329 86.5779 56.4694 86.8027C56.717 87.0327 57.0034 87.217 57.3152 87.3469C57.8044 87.5451 58.3399 87.5993 58.8587 87.5029C59.3776 87.4065 59.8582 87.1636 60.244 86.8027V86.7711Z" fill="black"/>
<path d="M33.9349 47.4573L23.1475 40.3008V50.3744L33.9349 57.4993L44.7161 64.6242L55.5035 71.7492V61.6756L44.7161 54.5506L33.9349 47.4573Z" fill="#0082AA"/>
<path d="M44.7161 14.2562L33.9349 7.13125L23.1475 0V10.0799L33.9349 17.2049L44.7161 24.3298L55.5035 31.4484V21.3748L44.7161 14.2562Z" fill="#0082AA"/>
<path d="M33.9349 27.2784L23.1475 20.1535V30.2271L33.9349 37.3331L44.7161 44.477L55.5035 51.6019V41.5283L44.7161 34.4034L33.9349 27.2784Z" fill="#0082AA"/>
<path d="M77.0715 7.13125L66.2778 14.2562L55.5029 21.3811V71.7428L62.2506 67.3135V26.9937L66.2778 24.3298L68.2913 22.9883V63.2764L75.0453 58.8471V18.5337L77.0652 17.1922L81.0924 14.5346V54.8227L87.8464 50.3934V0L77.0715 7.13125Z" fill="#006987"/>
</svg>
